Patient5_TMGait_0pt45_1_right_07_EMG.mot
version=1
nRows=26
nColumns=33
inDegrees=no
endheader
time	1LAddLong	2LGlutMax	3LGlutMed	4LIliopsoas	5LSemiMemb	6LBicFemLong	7LRecFem	8LTensFascLat	9LVastMed	10LVasLat	11LGasMed	12lGasLat	13LTibAnt	14LPeroneusLong	15LSol	16LTibPost	17RAddLong	18RGlutMax	19RGlutMed	20RIliopsoas	21RSemiMemb	22RBicFemLong	23RRecFem	24RTensFascLat	25RVastMed	26RVasLat	27RGasMed	28RGasLat	29RTibAnt	30RPeroneusLong	31RSol	32RTibPost
11.17	0.11627	0.005646	-0.0383	0.015411	-0.033722	-0.13763	-0.008698	-0.04776	-0.000916	-0.007324	0.027008	0.030975	-0.021973	-0.042267	0.17853	-0.063629	0.000763	-0.01358	0.084381	0.051117	0.011902	-0.02243	-0.008087	0.012054	0.036316	-0.012665	0.001221	-0.008698	-0.038452	-0.009003	-0.026398	-0.007019
11.171	-0.13473	0.014496	-0.15884	-0.001373	-0.018768	-0.13062	-0.010376	-0.15472	-0.004883	-0.005951	-0.034637	0.032806	-0.010986	0.013885	0.21103	0.003357	0.000458	-0.009613	0.049744	-0.046234	0.034332	-0.024719	-0.009613	0.019073	0.021057	-0.009918	0.002289	-0.010986	-0.032959	-0.024872	-0.009308	-0.013733
11.172	-0.18417	0.005035	-0.16068	-0.01709	-0.007935	-0.11353	-0.005341	-0.2034	-0.006561	0.003204	-0.13702	0.061951	-0.006104	0.052643	0.12085	-0.017242	0.00061	-0.007935	0.032806	0.04303	0.028076	-0.014343	-0.006409	-0.010681	0.029449	-0.016937	-0.001526	-0.017395	-0.037384	-0.020752	-0.018158	-0.005188
11.173	-0.15701	0.009613	-0.17777	-0.029907	-0.023499	-0.089722	0.00061	-0.25436	0.007172	0.011292	-0.21133	0.030212	0.011749	0.039673	0.14038	0.06134	0.000153	-0.002136	0.061188	-0.14587	0.038757	-0.035095	-0.007935	-0.11124	0.028534	-0.019226	0.009155	-0.037994	-0.033417	-0.009766	-0.022583	-0.012665
11.174	-0.098114	0.001678	-0.14938	-0.023041	0.000153	-0.08606	0.000763	-0.26962	0.013275	0.023041	0.044403	0.016632	0.022888	0.011292	0.11093	0.071259	0.000916	-0.001984	0.091095	0.084534	0.056152	-0.029755	-0.000916	-0.22812	0.027924	-0.006866	0.003967	-0.027771	-0.023041	-0.009766	-0.017242	-0.012512
11.175	-0.028229	-0.018158	-0.059204	-0.016785	0.005951	-0.011902	0.005035	-0.052032	0.00885	0.02655	-0.032196	0.005493	0.026093	-0.005798	0.12711	-0.11231	0.001068	0.000916	0.06485	0.009308	0.066528	-0.026855	0.003662	-0.34988	0.022888	-0.016327	0.015259	-0.008545	-0.033264	-0.022125	0.00351	-0.005341
11.176	0.19287	-0.031281	0.12222	-0.00412	-0.00824	0.09079	0.005493	0.37582	0.016479	0.029449	0.11826	0.034485	0.009155	0.005493	0.11017	-0.048065	0.002136	0.001068	0.058441	-0.020599	0.063019	-0.029144	0.000305	-0.44907	0.02533	-0.010071	0.02121	-0.015411	-0.043945	-0.020599	0.000153	-0.009613
11.177	-0.074005	-0.037231	0.053253	0.006256	-0.014343	0.10834	0.012512	0.25177	0.018616	0.036163	0.074615	0.031738	0.00885	-0.005188	0.1506	-0.020905	-0.000916	0.000305	0.029602	-0.18585	0.047607	-0.013275	-0.002136	-0.48523	0.02655	-0.007172	0.018616	0.00351	-0.042572	-0.028076	0.00061	-0.00061
11.178	-0.072784	-0.045929	0.11658	0.009613	-0.024719	0.079041	0.007172	0.31952	0.062866	0.027771	0.20706	0.015259	0.008698	0.012207	0.000153	-0.014038	0.002747	-0.002899	0.054321	-0.003052	0.031128	-0.002594	0	-0.41031	0.0354	-0.003662	0.000153	0.004883	-0.030212	-0.007019	-0.014954	-0.012665
11.179	-0.028687	-0.033112	0.071869	-0.002289	-0.005188	0.10544	0.011902	0.27496	0.068512	0.017548	0.11139	0.017853	0.005035	0.023956	-0.13657	-0.006866	0.002747	-0.001678	0.005951	0.056152	0.055695	0.000458	0.002136	-0.22186	0.02121	-0.013733	-0.002136	0.020599	-0.015869	0.007172	-0.019226	-0.007935
11.18	0.042267	-0.017242	0.032654	0.003052	0.041046	0.13275	-0.003662	0.25101	0.047302	0.02594	0.098114	0.015411	0.011292	0.041809	-0.09491	0.083923	0.003815	-0.001678	-0.075989	-0.073547	0.034485	-0.00061	0.005646	0.01709	0.011292	-0.014343	-0.02655	0.021973	-0.016022	0.004578	-0.012817	-0.009918
11.181	0.070953	0.003204	0.079498	-0.007629	0.026855	0.10117	-0.009918	0.12237	0.026245	0.017395	0.061646	0.014801	0.010529	0.044708	-0.065918	0.022583	0.003967	-0.001068	-0.1471	0.021973	0.039673	0.002136	0	0.2475	0.019379	-0.014343	-0.031738	0.024567	-0.007935	-0.00412	-0.002747	-0.007629
11.182	0.10284	0.016479	0.12268	-0.004578	-0.002899	0.04364	-0.006561	0.19379	0.006714	0.002136	0.075989	0.007477	0.00946	0.034943	-0.050507	0.017853	0.010834	-0.002289	-0.17319	-0.094452	0.023651	0.005493	-0.002136	0.29633	0.012054	-0.012207	-0.010376	0.011444	-0.019379	-0.013123	-0.010071	-0.003967
11.183	0.15915	0.024261	0.086212	-0.005646	0.023193	0.058899	-0.006561	0.026245	-0.033417	-0.021973	0.060272	0.013428	0.00061	0.036774	-0.071869	0.085907	0.006866	-0.008087	-0.12619	-0.077667	0.04715	0.002289	0.007477	0.20142	0.01236	-0.008698	-0.007172	0.001678	-0.035858	-0.028534	-0.007782	-0.011292
11.184	0.16174	0.024872	0.025635	-0.004272	0.015411	0.081635	-0.007172	-0.025177	-0.062103	-0.048218	0.028381	0.032349	0.006714	0.033722	-0.064392	0.084839	0.006714	-0.007019	-0.061951	0.049744	0.026855	0.004883	0.014801	0.077515	0.011749	-0.00824	-0.005188	-0.000916	-0.060577	-0.041504	-0.010376	0.001831
11.185	0.020294	0.032501	0.028992	0.013428	0.033112	0.10483	-0.020294	-0.026093	-0.076447	-0.049133	-0.032196	0.031738	0.011444	-0.004425	-0.052338	-0.078583	0.004425	-0.010376	0.014801	0.0914	0.016174	0.007629	0.013275	0.020294	0.01236	-0.003967	-0.002594	-0.004883	-0.070953	-0.10284	-0.009613	-0.002136
11.186	-0.020447	0.027771	0.055542	0.014954	0.023041	0.039215	-0.017853	0.099182	-0.082397	-0.023346	-0.13565	0.017242	0.01709	-0.02655	-0.024567	-0.11688	0.004272	-0.010986	0.027161	-0.043488	0.016479	0.008392	0.013428	-0.050201	0.018463	-0.001678	-0.002136	-0.011292	-0.060883	-0.12543	-0.001831	-0.006714
11.187	-0.005646	0.033112	-0.005951	0.00351	0.032654	-0.037384	-0.016174	0.045624	-0.10803	-0.01358	0.044556	-0.007935	0.009003	-0.010986	0.001373	-0.054932	0.002594	-0.011139	0.074158	-0.10605	0.017242	0.003357	0.015259	-0.039215	0.006256	-0.001526	-0.005188	-0.002747	-0.045624	-0.0914	-0.007019	-0.01358
11.188	0.024414	0.04715	-0.059662	0.026703	0.031738	-0.092163	0.00412	-0.036926	-0.070038	-0.021362	0.14236	-0.019073	0.019226	0.016632	-0.06012	0.007172	0.006256	-0.008545	0.15671	0.014648	0.017548	0.007477	0.015106	0.033875	0.011597	-0.002899	-0.005798	0.004578	-0.009155	-0.030975	-0.012512	-0.001526
11.189	0.053711	0.027313	-0.073853	0.002747	0.023956	-0.21881	0.007477	0.017395	-0.041504	-0.030365	0.039825	0.002441	-0.010834	0.004272	-0.079041	-0.1474	0.006409	-0.007935	0.15655	0.10452	0.014954	0.006561	0.010223	0.14206	0.011292	-0.004578	0.002136	0.011139	-0.014496	-0.002594	-0.015106	-0.000305
11.19	0.055389	0.004425	-0.047607	0.012817	0.025787	-0.16525	-0.000458	0.050812	-0.019379	-0.039063	-0.001678	0.000153	-0.003662	-0.047455	-0.05127	-0.11322	0.006409	-0.007629	0.077515	-0.006866	0.025787	0.000458	0.003357	0.22659	0.013428	-0.002594	0.003967	0.009918	-0.098267	0.002899	-0.0177	-0.007935
11.191	0.057983	-0.008392	-0.029297	0.020905	0.014648	-0.000153	-0.006866	-0.019989	-0.002289	-0.040131	0.014496	-0.00885	0.008392	-0.046539	-0.083923	0.016174	0.000153	-0.007324	0.075073	-0.036774	0.00351	-0.000153	0.010834	0.19974	0.011292	-0.002747	0.001678	0.006409	-0.10315	-0.001068	0.002594	-0.006409
11.192	0.074463	-0.006104	0.004272	-0.040741	0.018005	0.074005	-0.000153	-0.009613	0.011292	-0.036316	-0.001831	-0.005951	0.005493	-0.034485	-0.087585	0.12665	0.005493	-0.009918	0.039215	0.037842	0.010071	0.00061	0.013733	0.17899	0.012207	-0.001678	-0.000305	-0.011902	-0.0354	-0.020752	-0.005951	0.00946
11.193	0.11169	0.009766	-0.011292	-0.010376	0.014191	0.12299	0.005188	-0.032959	0.015717	-0.040588	0.023499	-0.005646	0.001373	-0.023804	-0.03479	0.18204	0.003357	-0.003662	0.01358	0.031738	0.036774	-0.000153	0.002747	0.13626	0.011444	-0.005493	0.001678	-0.027313	0.018158	-0.020752	-0.028381	-0.004272
11.194	0.031433	-0.005341	-0.095215	0.087738	0.014191	0.13657	0.006561	-0.071411	0.010986	-0.045624	0.001526	0.002289	0.009155	-0.013428	-0.042114	0.072327	0.007782	-0.006256	0.048065	0.1474	0.045471	0.001984	0.001221	0.11887	0.007019	-0.013733	0.00412	-0.031738	0.063629	0.011444	-0.032196	-0.004883
11.195	0.008392	-0.015717	-0.052795	0.076904	0.017548	0.12604	0.010681	-0.025177	0.005188	-0.025635	-0.030823	0.003967	0.014191	-0.011444	-0.021973	-0.11871	0.003662	-0.005341	0.053864	-0.021667	0.074158	0.000305	0.003052	0.14954	0.004272	-0.000458	0.005341	-0.041809	0.066376	0.03891	-0.036011	-0.003815
